<?xml version="1.0" encoding="utf-8"?>
<!-- Generator: Adobe Illustrator 16.0.0, SVG Export Plug-In . SVG Version: 6.00 Build 0)  -->
<!DOCTYPE svg PUBLIC "-//W3C//DTD SVG 1.1//EN" "http://www.w3.org/Graphics/SVG/1.1/DTD/svg11.dtd">
<svg version="1.1" id="Layer_1" xmlns="http://www.w3.org/2000/svg" xmlns:xlink="http://www.w3.org/1999/xlink" x="0px" y="0px"
	 width="70px" height="70px" viewBox="0 0 70 70" enable-background="new 0 0 70 70" xml:space="preserve">
<g>
	<path d="M55.578,52.339c6.574-5.685,10.32-13.788,10.32-22.421c0-7.807-3.02-15.174-8.498-20.749
		C51.911,3.553,44.503,0.298,36.381,0c-0.822,0-1.666,0.337-2.32,0.927c-0.65,0.589-1.023,1.448-1.023,2.359v23.345H8.046
		c-1.867,0-3.385,1.474-3.385,3.287c0,8.292,3.538,16.206,9.746,21.883c-2.615,1.78-4.198,4.694-4.198,7.85
		c0,5.261,4.386,9.539,9.773,9.539s9.771-4.278,9.771-9.539c0-0.085,0-0.17-0.001-0.254c1.918,0.347,3.78,0.522,5.548,0.522
		c1.861,0,3.653-0.161,5.445-0.49c-0.042,0.327-0.072,0.677-0.072,1.041c0,5.255,4.387,9.531,9.773,9.531
		c5.391,0,9.775-4.275,9.775-9.531C60.222,57.125,58.436,54.055,55.578,52.339z M52.462,13.694
		c3.532,3.645,5.743,8.101,6.429,12.937h-19.12V6.975C44.616,7.837,48.988,10.148,52.462,13.694z M50.447,57.465
		c1.654,0,3,1.327,3,2.959c0,1.634-1.346,2.962-3,2.962c-1.651,0-2.996-1.328-2.996-2.962
		C47.451,58.792,48.795,57.465,50.447,57.465z M35.3,53.256c-11.967,0-21.945-8.557-23.586-20.055h47.174
		C57.245,44.699,47.265,53.256,35.3,53.256z M19.982,62.564c-1.65,0-2.996-1.326-2.996-2.957c0-1.634,1.346-2.964,2.996-2.964
		c1.624,0,2.999,1.358,2.999,2.964C22.981,61.238,21.636,62.564,19.982,62.564z"/>
</g>
</svg>
