<?xml version="1.0" encoding="utf-8"?>
<!-- Generator: Adobe Illustrator 16.0.0, SVG Export Plug-In . SVG Version: 6.00 Build 0)  -->
<!DOCTYPE svg PUBLIC "-//W3C//DTD SVG 1.1//EN" "http://www.w3.org/Graphics/SVG/1.1/DTD/svg11.dtd">
<svg version="1.1" id="Layer_1" xmlns="http://www.w3.org/2000/svg" xmlns:xlink="http://www.w3.org/1999/xlink" x="0px" y="0px"
	 width="70px" height="70px" viewBox="0 0 70 70" enable-background="new 0 0 70 70" xml:space="preserve">
<g>
	<path d="M47.008,5.752L46.624,7.1c1.786,2.153,5.766,7.911,7.614,18.196c0.905,2.402,1.701,4.875,2.399,7.331
		c-0.501-8.685-2.486-14.974-4.305-19.041c-2.363-5.282-4.878-7.94-5.446-8.502C47.024,5.272,47.076,5.518,47.008,5.752z"/>
	<path d="M45.662,10.466c0.255,0.264,0.508,0.535,0.755,0.815c-0.215-0.375-0.437-0.749-0.666-1.125L45.662,10.466z"/>
	<path d="M55.07,41.596c-0.079,1.11-0.471,4.871-2.294,9.798c0.415,0.422,0.792,0.878,1.125,1.368
		c2.171-5.541,2.622-9.841,2.708-11.066c0.051-0.842,0.089-1.669,0.112-2.479c-0.468-2.061-1.003-4.195-1.612-6.335
		C55.257,35.562,55.259,38.461,55.07,41.596z"/>
	<path d="M22.667,12.024c0.394-0.481,0.798-0.942,1.214-1.382l-0.142-0.484C23.362,10.783,23.008,11.405,22.667,12.024z"/>
	<path d="M22.849,7.126l-0.377-1.281c-0.096-0.327,0.033-0.677,0.318-0.864c0.051-0.033,0.104-0.063,0.155-0.096
		c-0.116,0.033-0.225,0.094-0.316,0.178c-0.118,0.11-2.913,2.762-5.497,8.656c-1.847,4.213-3.854,10.796-4.199,19.936
		c0.647-2.42,1.389-4.869,2.235-7.26C16.873,15.413,21.058,9.309,22.849,7.126z"/>
	<path d="M15.931,53.087c0.322-0.505,0.689-0.978,1.096-1.416c-1.906-4.981-2.333-8.8-2.42-9.916
		c-0.191-2.816-0.226-5.449-0.138-7.901c-0.569,2.123-1.066,4.23-1.5,6.262c0.027,0.577,0.058,1.16,0.098,1.752
		C13.163,43.102,13.655,47.476,15.931,53.087z"/>
	<path d="M22.316,15.326h0.398c0.384-0.807,0.796-1.618,1.241-2.436c-0.637,0.767-1.243,1.591-1.82,2.458
		c0.005-0.001,0.012-0.001,0.019-0.002C22.206,15.335,22.26,15.326,22.316,15.326z"/>
	<path d="M41.311,7.089l0.176-0.616l0.178-0.623l0.269-0.942c0.442,0.021,1.107,0.101,1.88,0.336
		c0.482,0.148,1.007,0.357,1.548,0.654l-0.185,0.646l-0.536,1.875l-0.242,0.847c0.431,0.378,0.853,0.778,1.263,1.2l0.089-0.309
		L46.624,7.1l0.384-1.347c0.068-0.234,0.017-0.48-0.121-0.668c-0.055-0.073-0.123-0.14-0.203-0.191
		c-2.149-1.387-4.246-1.537-5.046-1.537c-0.228,0-0.354,0.013-0.354,0.013c-0.317,0.03-0.588,0.25-0.676,0.557L40.24,5.214
		l0.005,1.351C40.606,6.725,40.961,6.898,41.311,7.089z"/>
	<path d="M22.472,5.846l0.377,1.281l0.891,3.032l0.142,0.484c0.406-0.429,0.823-0.838,1.25-1.223l-0.295-1.005l-0.522-1.776
		L24.121,5.98c0.527-0.294,1.043-0.506,1.519-0.656c0.794-0.252,1.473-0.335,1.9-0.361l0.338,1.153l0.019,0.061l0.299,1.018
		c0.38-0.215,0.767-0.413,1.162-0.59l-0.003-0.942l-0.498-1.692c-0.09-0.305-0.362-0.525-0.679-0.551c0,0-0.109-0.01-0.306-0.01
		c-0.786,0-2.815,0.15-4.926,1.477c-0.051,0.033-0.104,0.063-0.155,0.096C22.505,5.169,22.376,5.519,22.472,5.846z"/>
	<path d="M36.188,2.485l-0.003-0.939l0,0L36.188,2.485L36.188,2.485z"/>
	<path d="M37.726,0.769l0.006,1.361l0.955,0.567l0.012,3.288c0.527,0.161,1.043,0.356,1.546,0.581L40.24,5.214l-0.011-2.961
		c-0.001-0.271-0.145-0.523-0.378-0.66l-2.503-1.485c-0.009-0.005-0.02-0.007-0.029-0.012C37.56,0.226,37.725,0.477,37.726,0.769z"
		/>
	<path d="M37.512,3.797c-0.144,0.145-0.34,0.228-0.545,0.229l-0.773,0.002L36.2,5.473c0.526,0.056,1.041,0.141,1.545,0.255
		l-0.01-2.471C37.735,3.459,37.655,3.653,37.512,3.797z"/>
	<path d="M32.618,4.042c-0.001,0-0.002,0-0.002,0c-0.426,0-0.771-0.343-0.773-0.768l0.01,2.474c0.502-0.117,1.017-0.206,1.542-0.265
		L33.39,4.04L32.618,4.042z"/>
	<path d="M30.899,6.012l-0.012-3.285l0.953-0.575L31.834,0.79c-0.001-0.204,0.08-0.4,0.224-0.545
		c0.053-0.053,0.114-0.096,0.18-0.131c-0.01,0.005-0.021,0.007-0.03,0.014L29.714,1.63c-0.232,0.14-0.375,0.393-0.374,0.665
		l0.013,3.367l0.003,0.942C29.86,6.376,30.373,6.178,30.899,6.012z"/>
	<path d="M31.834,0.79l0.005,1.361l0.003,1.028v0.095l0,0c0.002,0.425,0.347,0.768,0.773,0.768c0,0,0.001,0,0.002,0L33.39,4.04
		l2.804-0.011l0.773-0.002c0.205,0,0.401-0.083,0.545-0.229c0.143-0.144,0.223-0.338,0.223-0.54c0-0.002,0.001-0.003,0.001-0.006
		L37.732,2.13l-0.006-1.361c-0.001-0.292-0.167-0.543-0.407-0.673c-0.042-0.022-0.086-0.041-0.131-0.055
		c-0.017-0.006-0.032-0.011-0.048-0.016c-0.054-0.013-0.11-0.021-0.168-0.022C36.968,0.002,36.962,0,36.958,0
		c-0.001,0-0.002,0-0.004,0c0,0-0.001,0-0.002,0l-4.347,0.016c-0.002,0-0.004,0.001-0.006,0.001c-0.008,0-0.014,0.003-0.021,0.003
		c-0.054,0.002-0.108,0.01-0.159,0.022c-0.018,0.006-0.035,0.011-0.051,0.017c-0.046,0.014-0.088,0.033-0.129,0.055
		c-0.066,0.035-0.127,0.078-0.18,0.131C31.915,0.39,31.833,0.586,31.834,0.79z M36.185,1.546L36.185,1.546l0.003,0.939l0,0
		l-2.804,0.011l-0.003-0.938L36.185,1.546z"/>
	<path d="M18.456,68.457v0.77l0.028-0.77l0,0H18.456z"/>
	<path d="M61.278,58.161c-0.001-0.384-0.031-0.782-0.093-1.249c-0.053-0.602-1.122-12.231-4.547-24.286
		c-0.698-2.456-1.495-4.929-2.399-7.331c-2.021-5.362-4.585-10.367-7.822-14.014c-0.247-0.281-0.5-0.551-0.755-0.815
		c-0.411-0.422-0.832-0.821-1.263-1.2c-0.698-0.611-1.424-1.161-2.179-1.64c-0.299-0.19-0.602-0.37-0.909-0.537
		c-0.349-0.191-0.705-0.365-1.065-0.524c-0.503-0.224-1.02-0.419-1.546-0.581c-0.313-0.098-0.632-0.183-0.954-0.256
		c-0.505-0.114-1.02-0.2-1.545-0.255c-0.461-0.049-0.931-0.077-1.409-0.078c-0.474,0.006-0.938,0.036-1.396,0.088
		c-0.525,0.059-1.04,0.147-1.542,0.265c-0.323,0.077-0.641,0.166-0.954,0.264c-0.527,0.166-1.04,0.364-1.542,0.592
		c-0.395,0.178-0.782,0.375-1.162,0.59c-0.396,0.223-0.784,0.464-1.164,0.725c-0.656,0.449-1.289,0.952-1.9,1.501
		c-0.427,0.384-0.844,0.793-1.25,1.223c-0.416,0.44-0.82,0.9-1.214,1.382c-3.128,3.83-5.584,8.953-7.5,14.371
		c-0.846,2.391-1.588,4.839-2.235,7.26C9.785,45.425,8.845,56.527,8.798,57.11c-0.059,0.464-0.084,0.861-0.083,1.248l0.007,1.948
		c0.018,4.688,3.379,8.606,7.812,9.498c-0.539-0.109-1.071-0.265-1.591-0.466c-0.296-0.116-0.492-0.4-0.493-0.716l-0.005-1.22
		c-2.48-1.401-4.167-4.058-4.179-7.1l-0.006-1.948c-0.002-0.323,0.021-0.662,0.073-1.066c0.001-0.013,0.002-0.026,0.003-0.039
		c0.008-0.098,0.643-7.804,2.633-17.13c0.434-2.032,0.931-4.139,1.5-6.262c0.216-0.804,0.441-1.61,0.678-2.416
		c0.891-3.028,1.989-6.217,3.323-9.258c0.872-1.982,1.843-3.902,2.924-5.67c0.058-0.222,0.12-0.442,0.193-0.659
		c0.002-0.009,0.008-0.016,0.01-0.024c0.004-0.012,0.01-0.021,0.015-0.033c0.02-0.046,0.043-0.089,0.07-0.128
		c0.003-0.005,0.004-0.011,0.008-0.014c0.001-0.002,0.002-0.004,0.003-0.004c0.032-0.044,0.069-0.084,0.109-0.12
		c0.009-0.009,0.019-0.017,0.028-0.024c0.04-0.033,0.081-0.062,0.127-0.085c0.003-0.001,0.005-0.004,0.009-0.005
		c0.047-0.024,0.098-0.042,0.15-0.056c0.007-0.003,0.012-0.006,0.019-0.008c0.577-0.867,1.183-1.692,1.82-2.458
		c0.33-0.398,0.668-0.782,1.014-1.148c0.865-0.916,1.781-1.729,2.752-2.412c0.304-0.214,0.611-0.417,0.925-0.605
		c0.237-0.142,0.476-0.275,0.718-0.401c0.5-0.261,1.014-0.488,1.541-0.678c0.314-0.113,0.632-0.214,0.954-0.301
		c0.502-0.135,1.016-0.239,1.542-0.309c0.457-0.058,0.922-0.092,1.396-0.097c0.479,0.001,0.948,0.032,1.41,0.088
		c0.526,0.064,1.041,0.166,1.544,0.297c0.323,0.085,0.642,0.184,0.954,0.295c0.528,0.187,1.044,0.411,1.546,0.667
		c0.209,0.106,0.416,0.22,0.621,0.338c0.376,0.216,0.743,0.453,1.104,0.707c0.954,0.671,1.858,1.462,2.712,2.355
		c0.16,0.167,0.318,0.339,0.475,0.512c2.138,2.376,3.961,5.373,5.504,8.6c1.624,3.396,2.936,7.048,3.977,10.492
		c0.16,0.531,0.315,1.061,0.467,1.591c0.609,2.14,1.144,4.274,1.612,6.335c2.19,9.645,2.917,17.745,2.925,17.845
		c0.002,0.013,0.003,0.027,0.004,0.039c0.056,0.408,0.081,0.744,0.082,1.065l0.008,1.949c0.008,2.185-0.836,4.245-2.376,5.796
		c-0.528,0.531-1.116,0.981-1.749,1.344l0.004,1.21c0.001,0.319-0.192,0.605-0.487,0.721c-1.143,0.453-2.335,0.684-3.542,0.688
		L18.489,70c-0.001,0-0.032,0-0.034,0c-0.109,0-0.218-0.004-0.327-0.009C18.237,69.996,18.343,70,18.452,70l33.14-0.125
		c2.6-0.01,5.039-1.031,6.87-2.876c1.83-1.845,2.833-4.292,2.823-6.89L61.278,58.161z"/>
	<path d="M18.489,70l33.103-0.126c1.208-0.005,2.399-0.235,3.542-0.688c0.294-0.116,0.488-0.402,0.487-0.721l-0.004-1.21
		l-0.034-9.073c-0.008-2.005-0.627-3.872-1.681-5.419c-0.333-0.49-0.71-0.946-1.125-1.368c-0.647-0.656-1.386-1.222-2.197-1.673
		c-0.452-0.254-0.925-0.473-1.417-0.652c-1.034-0.375-2.148-0.582-3.309-0.582L24.104,48.57c-1.239,0.004-2.422,0.242-3.51,0.671
		c-0.489,0.192-0.958,0.421-1.404,0.686c-0.803,0.477-1.531,1.066-2.163,1.744c-0.407,0.438-0.774,0.911-1.096,1.416
		c-0.967,1.519-1.528,3.319-1.52,5.25l0.034,9.064l0.005,1.22c0.001,0.316,0.197,0.601,0.493,0.716
		c0.52,0.202,1.052,0.357,1.591,0.466c0.016,0.004,0.03,0.007,0.046,0.009c0.178,0.036,0.355,0.067,0.535,0.092
		c0.002,0.001,0.004,0.001,0.007,0.001c0.143,0.02,0.287,0.036,0.43,0.05c0.023,0.002,0.046,0.003,0.071,0.006
		c0.126,0.01,0.252,0.021,0.379,0.026c0.043,0.002,0.085,0.002,0.128,0.003C18.238,69.996,18.347,70,18.456,70
		C18.457,70,18.488,70,18.489,70z M17.864,68.434c-0.021-0.002-0.042-0.003-0.064-0.006c-0.612-0.05-1.216-0.168-1.809-0.358
		l-0.037-9.74c-0.004-1.231,0.266-2.397,0.75-3.447c0.264-0.572,0.591-1.107,0.974-1.6c0.576-0.74,1.276-1.379,2.07-1.887
		c0.435-0.277,0.898-0.514,1.384-0.708c0.923-0.365,1.926-0.569,2.977-0.575l21.712-0.081h0.031c0.976,0,1.914,0.173,2.783,0.489
		c0.49,0.179,0.959,0.404,1.402,0.668c0.802,0.479,1.516,1.091,2.11,1.807c0.394,0.473,0.732,0.992,1.013,1.546
		c0.556,1.098,0.873,2.336,0.877,3.646l0.038,9.74c-0.606,0.199-1.225,0.323-1.852,0.375c-0.004,0.001-0.011,0.001-0.017,0.001
		c-0.206,0.017-0.414,0.027-0.622,0.027l-5.205,0.02l0.002,0.771c0.002,0.428-0.342,0.774-0.768,0.775l-22.639,0.084h-0.002
		c-0.425,0-0.771-0.342-0.773-0.768l-0.002-0.772l-3.715,0.015v0.001l-0.028,0.77v-0.77v-0.001
		C18.258,68.456,18.061,68.448,17.864,68.434z"/>
	<path d="M22.374,55.247c-0.002,0.002-0.003,0.003-0.006,0.006c0.042-0.043,0.089-0.081,0.14-0.114
		C22.46,55.171,22.415,55.205,22.374,55.247z"/>
	<path d="M46.361,63.077l-0.028-7.375c0-0.005-0.002-0.008-0.002-0.013c0.003,0.149-0.036,0.299-0.119,0.43l-1.413,2.218
		l0.025,6.814l0.009,2.134l0.003,1.069l-21.094,0.081l-0.009-2.311l-0.01-2.638l-0.02-5.197l-1.417-2.063
		c-0.12-0.176-0.161-0.39-0.12-0.591c-0.01,0.051-0.016,0.103-0.016,0.157l0.021,5.586l0.01,2.632l0.017,4.429l0.002,0.772
		c0.002,0.426,0.348,0.768,0.773,0.768h0.002l22.639-0.084c0.426-0.001,0.771-0.348,0.768-0.775l-0.002-0.771l-0.01-2.544
		L46.361,63.077z"/>
	<path d="M35.679,61.204l-0.001-0.401l-2.906,0.011l0.001,0.402L35.679,61.204z"/>
	<path d="M22.286,56.227l1.417,2.063l1.671,2.432l0.126,0.183c0.145,0.21,0.382,0.335,0.636,0.335c0.002,0,0.002,0,0.003,0
		l0.775-0.004l4.314-0.016l-0.004-1.172c0-0.131,0.037-0.258,0.098-0.371l-4.397,0.016l-0.383,0.002l-1.149-1.674l-1.007-1.464
		l1.017-0.005l1.543-0.006l15.895-0.06l1.31-0.005l-1.281,2.01l-0.729,1.144l-5.021,0.019c0.061,0.109,0.099,0.235,0.1,0.37
		l0.004,1.175l5.345-0.02c0.12-0.002,0.234-0.033,0.339-0.085c0.124-0.062,0.232-0.152,0.309-0.272l1.204-1.89l0.378-0.594
		l1.413-2.218c0.083-0.131,0.122-0.281,0.119-0.43c-0.001-0.052-0.006-0.104-0.018-0.156c-0.003-0.009-0.008-0.021-0.01-0.031
		c-0.013-0.049-0.032-0.099-0.057-0.145c-0.004-0.008-0.005-0.017-0.009-0.025c-0.004-0.007-0.011-0.012-0.016-0.019
		c-0.028-0.047-0.06-0.091-0.096-0.13c-0.006-0.007-0.011-0.015-0.017-0.02c-0.042-0.044-0.091-0.08-0.142-0.112
		c-0.014-0.009-0.029-0.016-0.043-0.024c-0.041-0.022-0.083-0.04-0.128-0.054c-0.017-0.005-0.032-0.01-0.049-0.015
		c-0.061-0.014-0.123-0.025-0.186-0.025c-0.001,0-0.002,0-0.002,0h-0.15l-2.573,0.011l-15.897,0.06l-2.574,0.009l-1.447,0.006
		c-0.063,0-0.125,0.01-0.185,0.026c-0.019,0.004-0.035,0.011-0.054,0.017c-0.043,0.015-0.086,0.032-0.125,0.054
		c-0.016,0.009-0.031,0.016-0.046,0.025c-0.051,0.033-0.098,0.071-0.14,0.114c-0.01,0.011-0.018,0.023-0.028,0.034
		c-0.031,0.037-0.06,0.076-0.084,0.119c-0.005,0.009-0.013,0.015-0.018,0.025c-0.004,0.009-0.006,0.018-0.01,0.027
		c-0.023,0.048-0.041,0.099-0.053,0.149c-0.002,0.01-0.007,0.018-0.009,0.028C22.125,55.837,22.166,56.051,22.286,56.227z"/>
	<path d="M44.705,16.786h-0.006c-0.028,0.056-0.056,0.113-0.084,0.167C44.643,16.898,44.676,16.843,44.705,16.786z"/>
	<path d="M23.48,16.867c0.015,0.031,0.034,0.061,0.049,0.091c-0.015-0.03-0.029-0.06-0.043-0.091H23.48z"/>
	<path d="M30.78,21.362L30.78,21.362c-0.207,0-0.412-0.009-0.617-0.024C30.368,21.353,30.573,21.362,30.78,21.362z"/>
	<path d="M46.501,15.898c0.001,0.002,0.003,0.005,0.004,0.006c-0.001,0-0.001,0-0.001,0C46.503,15.901,46.502,15.899,46.501,15.898z
		"/>
	<path d="M21.073,19.208l0.025,6.495c0.021,5.345,4.385,9.692,9.729,9.692l6.637-0.024c2.6-0.01,5.039-1.031,6.869-2.876
		c1.832-1.845,2.834-4.292,2.824-6.891l-0.025-6.708c-0.003-1.01-0.213-2.014-0.625-2.986c0.073,0.177,0.078,0.375,0.012,0.556
		c-0.256,0.705-0.589,1.364-0.986,1.975c0.01-0.015,0.021-0.03,0.031-0.046c0.016,0.168,0.023,0.337,0.023,0.507l0.025,6.708
		c0.009,2.188-0.835,4.246-2.375,5.797c-1.54,1.552-3.594,2.412-5.78,2.42l-6.599,0.025h-0.032c-4.496,0-8.168-3.659-8.186-8.156
		l-0.025-6.708c-0.001-0.169,0.004-0.338,0.015-0.507c0.117,0.18,0.24,0.354,0.368,0.526c-0.594-0.793-1.073-1.685-1.409-2.656
		c-0.06-0.172-0.054-0.358,0.008-0.523c-0.002,0.008-0.008,0.015-0.01,0.024c-0.074,0.217-0.136,0.438-0.193,0.659
		c-0.215,0.816-0.325,1.648-0.323,2.482L21.073,19.208z"/>
	<path d="M21.59,16.352c0.336,0.971,0.815,1.863,1.409,2.656c0.03,0.04,0.063,0.079,0.095,0.118
		c0.109,0.142,0.221,0.281,0.338,0.415c0.051,0.059,0.104,0.116,0.157,0.173c0.104,0.115,0.209,0.226,0.318,0.335
		c0.057,0.057,0.114,0.113,0.171,0.168c0.119,0.113,0.241,0.222,0.366,0.33c0.049,0.041,0.096,0.086,0.146,0.127
		c0.173,0.143,0.351,0.282,0.535,0.414c0.034,0.024,0.071,0.046,0.105,0.071c0.152,0.104,0.306,0.207,0.462,0.303
		c0.066,0.041,0.132,0.08,0.199,0.117c0.133,0.077,0.267,0.152,0.402,0.224c0.071,0.037,0.145,0.074,0.217,0.109
		c0.144,0.07,0.289,0.136,0.436,0.199c0.064,0.028,0.126,0.057,0.191,0.084c0.21,0.083,0.423,0.165,0.64,0.234
		c0.025,0.009,0.052,0.016,0.077,0.023c0.193,0.062,0.388,0.116,0.586,0.166c0.074,0.019,0.147,0.033,0.22,0.049
		c0.155,0.035,0.309,0.066,0.466,0.094c0.081,0.015,0.163,0.026,0.245,0.039c0.16,0.023,0.321,0.043,0.482,0.058
		c0.074,0.006,0.147,0.016,0.22,0.021c0.235,0.016,0.469,0.027,0.707,0.027l0.304,0l-0.005-1.544l-0.267,0.001H30.78l0,0
		c-0.208,0-0.412-0.009-0.617-0.024c-0.067-0.005-0.132-0.015-0.198-0.021c-0.137-0.014-0.273-0.028-0.408-0.048
		c-0.079-0.012-0.156-0.028-0.233-0.043c-0.122-0.021-0.243-0.044-0.363-0.072c-0.081-0.018-0.161-0.04-0.24-0.06
		c-0.115-0.029-0.23-0.062-0.343-0.096c-0.08-0.025-0.159-0.05-0.238-0.078c-0.111-0.038-0.221-0.08-0.33-0.121
		c-0.078-0.031-0.154-0.062-0.23-0.094c-0.11-0.047-0.218-0.097-0.326-0.15c-0.072-0.033-0.144-0.067-0.215-0.104
		c-0.112-0.057-0.222-0.119-0.333-0.183c-0.062-0.035-0.125-0.07-0.186-0.106c-0.133-0.081-0.262-0.168-0.39-0.256
		c-0.035-0.024-0.07-0.045-0.104-0.071c-0.161-0.115-0.317-0.235-0.469-0.361c-0.043-0.036-0.083-0.075-0.125-0.112
		c-0.108-0.092-0.214-0.185-0.316-0.285c-0.055-0.051-0.105-0.107-0.158-0.16c-0.087-0.088-0.174-0.178-0.256-0.27
		c-0.055-0.058-0.107-0.121-0.159-0.182c-0.077-0.092-0.152-0.183-0.226-0.277c-0.051-0.065-0.1-0.133-0.149-0.201
		c-0.07-0.096-0.137-0.194-0.204-0.292c-0.045-0.069-0.091-0.138-0.134-0.208c-0.063-0.104-0.125-0.209-0.185-0.316
		c-0.039-0.071-0.079-0.141-0.117-0.211c-0.015-0.03-0.034-0.06-0.049-0.091h0.006l21.213-0.081h0.006
		c-0.029,0.057-0.062,0.112-0.091,0.167c-0.042,0.078-0.083,0.155-0.126,0.231c-0.057,0.102-0.118,0.2-0.179,0.298
		c-0.044,0.07-0.089,0.142-0.136,0.211c-0.067,0.101-0.138,0.198-0.21,0.295c-0.045,0.063-0.09,0.126-0.139,0.189
		c-0.083,0.105-0.17,0.208-0.258,0.31c-0.042,0.048-0.08,0.096-0.123,0.145c-0.132,0.146-0.27,0.288-0.413,0.424
		c-0.003,0.003-0.008,0.006-0.012,0.01c-0.138,0.132-0.282,0.26-0.429,0.381c-0.049,0.042-0.1,0.079-0.15,0.119
		c-0.104,0.082-0.209,0.164-0.318,0.241c-0.062,0.044-0.126,0.086-0.189,0.128c-0.1,0.068-0.2,0.134-0.303,0.197
		c-0.07,0.042-0.14,0.082-0.211,0.122c-0.1,0.057-0.202,0.115-0.305,0.168c-0.074,0.037-0.149,0.075-0.224,0.11
		c-0.104,0.05-0.207,0.096-0.313,0.143c-0.077,0.033-0.156,0.064-0.234,0.096c-0.106,0.042-0.214,0.08-0.321,0.118
		c-0.08,0.027-0.159,0.055-0.24,0.08c-0.111,0.034-0.224,0.065-0.336,0.096c-0.08,0.021-0.159,0.043-0.24,0.061
		c-0.118,0.027-0.238,0.05-0.358,0.072c-0.077,0.015-0.152,0.03-0.23,0.042c-0.134,0.021-0.267,0.035-0.403,0.049
		c-0.065,0.007-0.131,0.016-0.198,0.022c-0.201,0.017-0.403,0.025-0.608,0.026l-0.337,0.001l0.005,1.545l0.337-0.001
		c0.234-0.002,0.467-0.014,0.697-0.032c0.073-0.003,0.146-0.013,0.219-0.021c0.158-0.017,0.316-0.034,0.472-0.058
		c0.083-0.013,0.166-0.025,0.249-0.041c0.148-0.027,0.295-0.057,0.441-0.088c0.08-0.02,0.159-0.036,0.238-0.056
		c0.162-0.042,0.324-0.088,0.484-0.137c0.057-0.018,0.115-0.033,0.172-0.053c0.215-0.069,0.425-0.146,0.633-0.23
		c0.049-0.021,0.097-0.043,0.146-0.065c0.159-0.068,0.317-0.138,0.473-0.214c0.071-0.035,0.141-0.072,0.212-0.11
		c0.131-0.067,0.261-0.139,0.389-0.213c0.072-0.042,0.144-0.084,0.215-0.127c0.129-0.079,0.254-0.162,0.379-0.246
		c0.063-0.044,0.127-0.084,0.188-0.129c0.16-0.115,0.316-0.233,0.469-0.357c0.022-0.018,0.044-0.034,0.066-0.052
		c0.174-0.142,0.34-0.293,0.504-0.447c0.05-0.046,0.097-0.096,0.146-0.144c0.112-0.111,0.224-0.224,0.33-0.341
		c0.056-0.06,0.109-0.121,0.164-0.183c0.098-0.113,0.193-0.228,0.287-0.346c0.051-0.063,0.101-0.126,0.149-0.188
		c0.1-0.133,0.196-0.269,0.289-0.405c0.034-0.052,0.072-0.102,0.106-0.156c0.397-0.611,0.73-1.271,0.986-1.975
		c0.066-0.18,0.061-0.378-0.012-0.556c0-0.002,0-0.002-0.001-0.002c0-0.001,0-0.001,0-0.001c-0.001-0.003-0.003-0.006-0.004-0.008
		c-0.021-0.051-0.043-0.099-0.068-0.147l-0.026-0.052c-0.123-0.28-0.4-0.46-0.707-0.46c0,0-0.001,0-0.002,0l-22.984,0.087h-0.398
		c-0.056,0-0.11,0.009-0.162,0.021c-0.007,0.001-0.014,0.001-0.019,0.002c-0.007,0.001-0.012,0.005-0.019,0.008
		c-0.052,0.014-0.103,0.032-0.15,0.056c-0.003,0.001-0.005,0.004-0.009,0.005c-0.046,0.024-0.087,0.053-0.127,0.085
		c-0.009,0.007-0.019,0.015-0.028,0.024c-0.04,0.036-0.077,0.076-0.109,0.12c-0.001,0-0.002,0.002-0.003,0.004
		c-0.003,0.003-0.004,0.009-0.008,0.014c-0.026,0.04-0.05,0.083-0.07,0.128c-0.004,0.012-0.01,0.021-0.015,0.033
		C21.536,15.994,21.53,16.179,21.59,16.352z"/>
	<path d="M31.326,27.123c0.145,0.143,0.34,0.224,0.544,0.224c0.001,0,0.002,0,0.002,0l4.452-0.017
		c0.426-0.001,0.771-0.349,0.768-0.774l-0.013-3.672l-0.005-1.545l-0.006-1.348c-0.001-0.426-0.347-0.77-0.771-0.77
		c-0.001,0-0.002,0-0.003,0l-4.451,0.017c-0.205,0.001-0.4,0.083-0.545,0.228c-0.145,0.146-0.225,0.343-0.225,0.548l0.006,1.348
		l0.005,1.544l0.015,3.673C31.099,26.782,31.181,26.979,31.326,27.123z M35.527,20.768l0.002,0.576l0.005,1.546l0.011,2.899
		L32.64,25.8l-0.011-2.901l-0.007-1.543l-0.002-0.578L35.527,20.768z"/>
	<path d="M32.01,64.519c0.001,0,0.002,0,0.003,0l4.451-0.016c0.205-0.001,0.4-0.083,0.545-0.23c0.145-0.145,0.224-0.342,0.224-0.545
		l-0.01-2.529l-0.004-1.175c-0.001-0.135-0.039-0.26-0.1-0.37c-0.132-0.236-0.382-0.398-0.671-0.398c-0.001,0-0.002,0-0.003,0
		l-4.451,0.017c-0.205,0-0.4,0.082-0.545,0.229c-0.052,0.053-0.092,0.112-0.127,0.176c-0.061,0.113-0.098,0.24-0.098,0.371
		l0.004,1.172l0.01,2.531C31.24,64.174,31.585,64.519,32.01,64.519z M35.678,60.803l0.001,0.401l0.007,1.756l-2.906,0.012
		l-0.007-1.757l-0.001-0.402L35.678,60.803z"/>
</g>
</svg>
