<?xml version="1.0" encoding="utf-8"?>
<!-- Generator: Adobe Illustrator 16.0.0, SVG Export Plug-In . SVG Version: 6.00 Build 0)  -->
<!DOCTYPE svg PUBLIC "-//W3C//DTD SVG 1.1//EN" "http://www.w3.org/Graphics/SVG/1.1/DTD/svg11.dtd">
<svg version="1.1" id="Layer_1" xmlns="http://www.w3.org/2000/svg" xmlns:xlink="http://www.w3.org/1999/xlink" x="0px" y="0px"
	 width="70px" height="70px" viewBox="0 0 70 70" enable-background="new 0 0 70 70" xml:space="preserve">
<g>
	<path d="M61.409,19.93h-3.108h-3.983v-1.254c0-1.048-0.89-1.899-1.986-1.899h-0.609c-0.556-2.771-2.217-5.901-4.539-8.516
		c-3.493-3.93-7.818-6.093-12.182-6.093c-4.369,0-8.696,2.163-12.184,6.093c-2.328,2.622-3.995,5.752-4.554,8.516H17.67
		c-1.096,0-1.989,0.852-1.989,1.899v1.254h-2.665H8.591C3.853,19.93,0,23.613,0,28.143v31.138c0,4.527,3.853,8.208,8.591,8.208
		h52.818c4.738,0,8.591-3.681,8.591-8.208V28.143C70,23.613,66.147,19.93,61.409,19.93z M23.989,17.832
		c0.368-1.819,1.622-4.104,3.272-5.963c2.363-2.662,5.11-4.127,7.739-4.127c2.624,0,5.373,1.465,7.737,4.128
		c1.644,1.85,2.89,4.13,3.256,5.955c0.156,0.778,0.484,1.488,0.931,2.106H23.062C23.506,19.314,23.833,18.606,23.989,17.832z
		 M64.168,59.281c0,1.453-1.236,2.635-2.759,2.635H8.591c-1.521,0-2.759-1.182-2.759-2.635V28.143c0-1.456,1.238-2.638,2.759-2.638
		h4.425h2.665h38.636h3.983h3.108c1.523,0,2.759,1.182,2.759,2.638V59.281z"/>
	<path d="M55.349,35.05H14.651c-1.609,0-2.916,1.248-2.916,2.786c0,1.539,1.306,2.787,2.916,2.787h40.697
		c1.611,0,2.916-1.248,2.916-2.787C58.264,36.298,56.96,35.05,55.349,35.05z"/>
</g>
</svg>
