<?xml version="1.0" encoding="utf-8"?>
<!-- Generator: Adobe Illustrator 16.0.0, SVG Export Plug-In . SVG Version: 6.00 Build 0)  -->
<!DOCTYPE svg PUBLIC "-//W3C//DTD SVG 1.1//EN" "http://www.w3.org/Graphics/SVG/1.1/DTD/svg11.dtd">
<svg version="1.1" id="Layer_1" xmlns="http://www.w3.org/2000/svg" xmlns:xlink="http://www.w3.org/1999/xlink" x="0px" y="0px"
	 width="70px" height="70px" viewBox="0 0 70 70" enable-background="new 0 0 70 70" xml:space="preserve">
<g>
	<path d="M35.157,21.917c-9.265,0-16.802,7.109-16.802,15.846c0,8.735,7.537,15.84,16.802,15.84s16.8-7.105,16.8-15.84
		C51.958,29.027,44.422,21.917,35.157,21.917z M35.157,47.753c-5.839,0-10.589-4.482-10.589-9.99c0-5.515,4.75-9.997,10.589-9.997
		c5.841,0,10.592,4.482,10.592,9.997C45.749,43.271,40.998,47.753,35.157,47.753z"/>
	<path d="M67.028,19.596c-1.896-1.789-4.407-2.771-7.064-2.771l-6.713-0.035l-6.608-9.297c-0.571-0.839-1.564-1.362-2.593-1.362
		h-18.5c-1.003,0-1.951,0.49-2.542,1.305l-6.841,9.354l-6.189,0.035c-5.52,0-10.009,4.228-10.009,9.428v27.935
		c0,5.24,4.489,9.504,10.009,9.504h49.983c5.518,0,10.008-4.264,10.008-9.504V26.252C69.97,23.747,68.925,21.384,67.028,19.596z
		 M59.961,57.843H9.979c-2.059,0-3.798-1.674-3.798-3.656V26.252c0-1.979,1.705-3.584,3.798-3.584h7.843
		c0.996,0,1.946-0.49,2.542-1.303l6.84-9.351h15.186l6.586,9.281c0.588,0.803,1.56,1.303,2.532,1.303l8.416,0.071
		c2.095,0,3.797,1.606,3.797,3.584V54.19c0,0.068,0.013,0.139,0.032,0.204C63.638,56.285,61.948,57.843,59.961,57.843z"/>
	<path d="M56.51,28.133c0.473,0,0.861,0.364,0.861,0.811c0,0.453-0.388,0.817-0.861,0.817c-0.478,0-0.864-0.364-0.864-0.817
		C55.646,28.497,56.032,28.133,56.51,28.133z"/>
	<path d="M56.51,26.01c-1.728,0-3.115,1.307-3.115,2.934c0,1.632,1.387,2.944,3.115,2.944c1.724,0,3.114-1.312,3.114-2.944
		C59.624,27.317,58.233,26.01,56.51,26.01z M56.51,30.257c-0.789,0-1.391-0.601-1.391-1.313c0-0.703,0.637-1.307,1.391-1.307
		c0.749,0,1.387,0.604,1.387,1.307C57.897,29.657,57.296,30.257,56.51,30.257z"/>
</g>
</svg>
