<?xml version="1.0" encoding="utf-8"?>
<!-- Generator: Adobe Illustrator 16.0.0, SVG Export Plug-In . SVG Version: 6.00 Build 0)  -->
<!DOCTYPE svg PUBLIC "-//W3C//DTD SVG 1.1//EN" "http://www.w3.org/Graphics/SVG/1.1/DTD/svg11.dtd">
<svg version="1.1" id="Layer_1" xmlns="http://www.w3.org/2000/svg" xmlns:xlink="http://www.w3.org/1999/xlink" x="0px" y="0px"
	 width="70px" height="70px" viewBox="0 0 70 70" enable-background="new 0 0 70 70" xml:space="preserve">
<g>
	<path d="M26.143,5.241l-0.219,0.499l-0.161,0.369l-1.445,3.307l-0.157,0.357l-10.583,2.036l-0.742,0.142l-0.221,0.043l0.01,0.784
		L1.941,54.815l-0.339-0.093L0,60.545l13.046,3.56l1.604-5.824l-0.591-0.161l1.431-5.635l1.188,15.7l33.813,0.013l1.624-20.777
		l3.417,10.348l-0.306,0.105l2.008,5.697L70,59.112l-2.007-5.696l-0.604,0.211L53.741,12.291l-0.01-0.814l-0.273-0.046l-0.526-0.089
		L42.705,9.627l-0.173-0.362L41.014,6.07l-0.279-0.588l-0.184-0.388l-0.895,0.009L27.005,5.231 M40.551,5.094 M29.526,7.286
		l7.677-0.078l-3.788,3.249L29.526,7.286z M32.168,11.921l-2.81,4.828l-3.307-6.332l1.123-2.566L32.168,11.921z M29.261,20.848
		l4.198-7.216l4.388,7.1l0.401-0.806l-4.455,21.131l-5.023-21.148L29.261,20.848z M37.653,16.666l-2.948-4.775l4.883-4.189
		l1.236,2.603L37.653,16.666z M11.738,61.818l-9.44-2.577l0.614-2.232l9.442,2.575L11.738,61.818z M12.254,57.628l-8.509-2.321
		l9.217-36.264l2.086,27.592L12.254,57.628z M48.197,65.903H18.361l-3.837-50.981l-0.019-1.396l9.936-1.91l0.807,1.544l7.677,32.32
		l0.902,4.491l7.734-36.69l0.899-1.807l9.419,1.581l0.018,1.339L48.197,65.903z M52.375,42.242l1.221-24.423l12.028,36.426
		l-8.326,2.907L52.375,42.242z M58.38,61.199l-0.77-2.185l9.237-3.226l0.769,2.184L58.38,61.199z"/>
</g>
</svg>
