<?xml version="1.0" encoding="utf-8"?>
<!-- Generator: Adobe Illustrator 16.0.0, SVG Export Plug-In . SVG Version: 6.00 Build 0)  -->
<!DOCTYPE svg PUBLIC "-//W3C//DTD SVG 1.1//EN" "http://www.w3.org/Graphics/SVG/1.1/DTD/svg11.dtd">
<svg version="1.1" id="Layer_1" xmlns="http://www.w3.org/2000/svg" xmlns:xlink="http://www.w3.org/1999/xlink" x="0px" y="0px"
	 width="70px" height="70px" viewBox="0 0 70 70" enable-background="new 0 0 70 70" xml:space="preserve">
<g>
	<path d="M61.753,6.359H8.246C3.699,6.359,0,10.019,0,14.517V47.5C0,52,3.699,55.659,8.246,55.659H24.14v5.073h-8.503
		c-0.691,0-1.253,0.555-1.253,1.24v3.513c0,0.685,0.562,1.24,1.253,1.24h38.727c0.692,0,1.253-0.555,1.253-1.24v-3.513
		c0-0.685-0.561-1.24-1.253-1.24h-8.506v-5.073h15.896C66.301,55.659,70,52,70,47.5V14.517C70,10.019,66.301,6.359,61.753,6.359z
		 M29.642,60.731v-4.89h10.716v4.89H29.642z M5.502,44.732h58.996V47.5c0,1.497-1.231,2.719-2.744,2.719H8.246
		c-1.513,0-2.744-1.222-2.744-2.719V44.732z M8.246,11.801h53.507c1.513,0,2.744,1.219,2.744,2.716v26.256H5.502V14.517
		C5.502,13.02,6.733,11.801,8.246,11.801z"/>
	<path d="M35,50.054c1.323,0,2.397-1.06,2.397-2.371c0-1.306-1.074-2.368-2.397-2.368c-1.324,0-2.397,1.063-2.397,2.368
		C32.603,48.994,33.676,50.054,35,50.054z M35,46.791c0.497,0,0.902,0.396,0.902,0.892c0,0.491-0.406,0.888-0.902,0.888
		c-0.497,0-0.903-0.397-0.903-0.888C34.097,47.187,34.503,46.791,35,46.791z"/>
</g>
</svg>
