<?xml version="1.0" encoding="utf-8"?>
<!-- Generator: Adobe Illustrator 16.0.0, SVG Export Plug-In . SVG Version: 6.00 Build 0)  -->
<!DOCTYPE svg PUBLIC "-//W3C//DTD SVG 1.1//EN" "http://www.w3.org/Graphics/SVG/1.1/DTD/svg11.dtd">
<svg version="1.1" id="Layer_1" xmlns="http://www.w3.org/2000/svg" xmlns:xlink="http://www.w3.org/1999/xlink" x="0px" y="0px"
	 width="70px" height="70px" viewBox="0 0 70 70" enable-background="new 0 0 70 70" xml:space="preserve">
<g>
	<path d="M56.297,16.345h-1.051c-2.619-10.026-8.53-13.248-9.627-13.769C43.156,0.866,39.639,0,35.165,0
		c-4.475,0-7.991,0.866-10.454,2.576c-1.097,0.521-7.009,3.743-9.627,13.769h-1.049c-3.057,0-5.544,2.502-5.544,5.577v42.502
		c0,3.073,2.487,5.576,5.544,5.576h42.263c3.057,0,5.545-2.502,5.545-5.576V21.922C61.842,18.848,59.354,16.345,56.297,16.345z
		 M14.417,22.53c0-0.506,0.404-0.917,0.899-0.917h0.537c0.144,4.09,1.004,12.249,5.269,19.225c0.368,0.604,1.002,0.989,1.662,1.03
		l0.167,0.007c0.654,0,1.266-0.297,1.673-0.813c0.099-0.123,2.475-3.069,5.608-5.632l1.754-1.321l0.6-0.412
		c0.295-0.19,0.586-0.374,0.966-0.597c0.553-0.316,1.094-0.587,1.613-0.811c0.522,0.225,1.078,0.504,1.706,0.866
		c0.287,0.168,0.579,0.352,0.874,0.544l0.321,0.213l0.253,0.178l1.745,1.314c3.167,2.59,5.543,5.536,5.64,5.655
		c0.411,0.519,1.021,0.816,1.675,0.816l0.132-0.004c0.695-0.043,1.33-0.428,1.697-1.031c4.266-6.978,5.126-15.136,5.27-19.227h0.54
		c0.496,0,0.899,0.412,0.899,0.917v40.525c0,0.506-0.403,0.916-0.899,0.916H15.315c-0.495,0-0.899-0.41-0.899-0.916V22.53z
		 M25.995,10.393c0.031-0.154,0.07-0.305,0.122-0.466l0.038-0.104c0.037-0.107,0.075-0.213,0.121-0.317l0.071-0.149
		c0.044-0.09,0.09-0.179,0.138-0.263l0.094-0.154c0.055-0.083,0.113-0.167,0.192-0.272l0.093-0.123
		c0.073-0.087,0.153-0.173,0.233-0.256l0.116-0.12c0.127-0.122,0.263-0.243,0.414-0.358c1.56-1.185,4.095-1.786,7.538-1.786
		c3.442,0,5.978,0.601,7.54,1.789c0.149,0.112,0.284,0.233,0.412,0.355l0.736-0.803l-0.625,0.918
		c0.081,0.084,0.16,0.169,0.238,0.266l0.105,0.135c0.063,0.083,0.123,0.168,0.178,0.255l0.088,0.141
		c0.053,0.093,0.101,0.186,0.147,0.282l0.067,0.14c0.051,0.116,0.095,0.234,0.164,0.431c0.049,0.156,0.089,0.314,0.128,0.509
		c0.028,0.148,0.051,0.299,0.077,0.554c0.012,0.137,0.021,0.273,0.024,0.411l0.001,0.116c0.001,0.148-0.001,0.294-0.015,0.522
		c-0.021,0.335-0.064,0.682-0.129,1.045c-2.959-2.112-6.09-3.219-9.137-3.22c-3.05,0.001-6.182,1.109-9.14,3.222
		c-0.027-0.158-0.053-0.314-0.073-0.473l-1.068,0.147l1.05-0.321c-0.013-0.119-0.025-0.238-0.033-0.355l-0.011-0.197
		c-0.004-0.109-0.006-0.218-0.006-0.328l0.002-0.193c0.004-0.109,0.035-0.501,0.035-0.501c0.014-0.122,0.034-0.244,0.056-0.365
		l-1.059-0.203L25.995,10.393z M42.61,17.861c-0.339,0.767-0.673,1.488-0.999,2.165c-2.466,5.107-4.636,7.696-6.447,7.696
		c-1.809,0-3.977-2.589-6.444-7.696c-0.326-0.676-0.659-1.4-1-2.166c-0.06-0.137-0.122-0.277-0.184-0.421
		c1.889-1.548,4.59-3.168,7.628-3.169c3.039,0.001,5.741,1.622,7.628,3.171C42.732,17.583,42.671,17.723,42.61,17.861z
		 M48.862,14.987l0.047-0.145c0.15-0.486,0.278-0.977,0.401-1.551c0.642,1.356,1.169,2.857,1.579,4.488
		c0.092,0.372,0.184,0.748,0.266,1.14c0.004,0.176,0.006,0.48,0,0.873c-0.035,2.822-0.457,9.756-3.449,16.141
		c-1.479-1.549-3.453-3.419-5.722-5.089c-0.521-0.384-1.036-0.739-1.543-1.066c2.041-1.836,4.043-4.908,6.196-9.478
		c0.348-0.737,0.701-1.514,1.06-2.337c0.159-0.363,0.318-0.73,0.481-1.113C48.418,16.278,48.635,15.69,48.862,14.987z
		 M23.392,18.755c0.336,0.784,0.667,1.525,0.994,2.229c2.021,4.356,3.903,7.285,5.822,9.036c-0.478,0.313-0.96,0.652-1.448,1.017
		c-2.179,1.626-4.075,3.476-5.375,4.854c-2.804-6.079-3.205-12.697-3.241-15.393c-0.005-0.374-0.003-0.662-0.001-0.832
		c0.077-0.374,0.163-0.73,0.25-1.084c0.383-1.555,0.88-2.986,1.483-4.282c0.106,0.515,0.239,1.029,0.395,1.532l0.039,0.122
		c0.192,0.61,0.399,1.178,0.648,1.782C23.089,18.053,23.22,18.357,23.392,18.755z"/>
</g>
</svg>
