<?xml version="1.0" encoding="utf-8"?>
<!-- Generator: Adobe Illustrator 16.0.0, SVG Export Plug-In . SVG Version: 6.00 Build 0)  -->
<!DOCTYPE svg PUBLIC "-//W3C//DTD SVG 1.1//EN" "http://www.w3.org/Graphics/SVG/1.1/DTD/svg11.dtd">
<svg version="1.1" id="Layer_1" xmlns="http://www.w3.org/2000/svg" xmlns:xlink="http://www.w3.org/1999/xlink" x="0px" y="0px"
	 width="70px" height="70px" viewBox="0 0 70 70" enable-background="new 0 0 70 70" xml:space="preserve">
<g>
	<path d="M35,0C15.7,0,0,15.702,0,35.002c0,19.299,15.7,35,35,35c19.299,0,35-15.701,35-35C70,15.702,54.299,0,35,0z M35,6.752
		c5.726,0,11.044,1.73,15.5,4.669c-2.792,3.799-4.811,8.535-5.936,13.788c-2.905-0.732-6.067-1.203-9.564-1.203
		c-3.507,0-6.677,0.472-9.589,1.208c-1.14-5.245-3.162-10.021-5.914-13.793C23.953,8.483,29.273,6.752,35,6.752z M6.811,36.166
		c-0.015-0.391-0.058-0.771-0.058-1.164c0-7.845,3.242-14.92,8.422-20.042c2.309,3.241,3.982,7.404,4.902,11.994
		C14.086,29.463,9.697,33.124,6.811,36.166z M8.133,43.692c1.374-1.974,5.548-7.187,12.687-10.628
		c0.029,0.644,0.074,1.285,0.074,1.938c0,7.689-2.111,14.977-5.717,20.037C12.001,51.896,9.543,48.039,8.133,43.692z M19.499,58.582
		c4.454-6.057,6.985-14.477,6.985-23.58c0-1.347-0.068-2.683-0.183-4.004c2.618-0.711,5.503-1.156,8.699-1.156
		c3.201,0,6.083,0.434,8.694,1.13c-0.111,1.326-0.176,2.668-0.176,4.03c0,9.103,2.529,17.522,6.981,23.58
		c-4.456,2.938-9.774,4.667-15.5,4.667S23.954,61.521,19.499,58.582z M54.822,55.04c-3.603-5.063-5.715-12.35-5.715-20.038
		c0-0.669,0.044-1.327,0.075-1.989c7.163,3.419,11.302,8.641,12.69,10.668C60.462,48.033,58,51.894,54.822,55.04z M49.922,26.954
		c0.921-4.592,2.593-8.755,4.903-11.996c5.18,5.122,8.424,12.197,8.424,20.044c0,0.392-0.042,0.774-0.06,1.166
		C60.305,33.124,55.916,29.463,49.922,26.954z"/>
</g>
</svg>
