<?xml version="1.0" encoding="utf-8"?>
<!-- Generator: Adobe Illustrator 16.0.0, SVG Export Plug-In . SVG Version: 6.00 Build 0)  -->
<!DOCTYPE svg PUBLIC "-//W3C//DTD SVG 1.1//EN" "http://www.w3.org/Graphics/SVG/1.1/DTD/svg11.dtd">
<svg version="1.1" id="Layer_1" xmlns="http://www.w3.org/2000/svg" xmlns:xlink="http://www.w3.org/1999/xlink" x="0px" y="0px"
	 width="70px" height="70px" viewBox="0 0 70 70" enable-background="new 0 0 70 70" xml:space="preserve">
<g>
	<path d="M35,70C15.701,70,0,54.299,0,35C0,15.702,15.701,0,35,0s35,15.702,35,35C70,54.299,54.299,70,35,70z M35,2.188
		C16.907,2.188,2.188,16.908,2.188,35c0,18.093,14.719,32.812,32.813,32.812c18.093,0,32.813-14.719,32.813-32.812
		C67.813,16.908,53.093,2.188,35,2.188z"/>
	<path d="M35,65.625C18.113,65.625,4.375,51.887,4.375,35C4.375,18.114,18.113,4.375,35,4.375c16.887,0,30.625,13.739,30.625,30.625
		C65.625,51.887,51.887,65.625,35,65.625z M35,6.563C19.319,6.563,6.563,19.32,6.563,35c0,15.681,12.756,28.438,28.438,28.438
		c15.681,0,28.438-12.757,28.438-28.438C63.438,19.32,50.681,6.563,35,6.563z"/>
	<path d="M36.094,64.532h-2.188V30.626h2.188V64.532z"/>
	<path d="M36.094,10.938h-2.188V5.469h2.188V10.938z"/>
	<path d="M62.489,43.201C62.403,43.053,53.787,28.438,35,28.438c-18.835,0-27.403,14.613-27.488,14.761l-1.899-1.085
		C5.704,41.955,14.91,26.251,35,26.251c20.09,0,29.296,15.704,29.387,15.863L62.489,43.201z"/>
	<path d="M17.247,58.699l-1.629-1.458c4.603-5.147,7.351-13.46,7.351-22.24c0-8.779-2.75-17.094-7.354-22.244l1.629-1.459
		c4.954,5.539,7.912,14.4,7.912,23.703C25.156,44.441,22.273,53.079,17.247,58.699z"/>
	<path d="M52.748,58.696C47.724,53.072,44.844,44.438,44.844,35c0-9.441,2.883-18.078,7.908-23.698l1.63,1.458
		c-4.603,5.147-7.351,13.46-7.351,22.239c0,8.774,2.747,17.088,7.349,22.238L52.748,58.696z"/>
	<path d="M36.094,15.313h-2.188v-2.187h2.188V15.313z"/>
	<path d="M36.094,19.688h-2.188v-2.188h2.188V19.688z"/>
	<path d="M36.094,24.063h-2.188v-2.188h2.188V24.063z"/>
</g>
</svg>
